<?xml version="1.0" standalone="no"?>
<!DOCTYPE svg PUBLIC "-//W3C//DTD SVG 20010904//EN"
 "http://www.w3.org/TR/2001/REC-SVG-20010904/DTD/svg10.dtd">
<svg version="1.0" xmlns="http://www.w3.org/2000/svg"
 width="512.000000pt" height="512.000000pt" viewBox="0 0 512.000000 512.000000"
 preserveAspectRatio="xMidYMid meet">
<metadata>
Created by potrace 1.14, written by Peter Selinger 2001-2017
</metadata>
<g transform="translate(0.000000,512.000000) scale(0.100000,-0.100000)"
fill="#000000" stroke="none">
<path d="M2379 5116 c-2 -2 -35 -6 -74 -10 -103 -9 -246 -33 -360 -62 -118
-29 -286 -83 -299 -95 -6 -5 -16 -9 -24 -9 -19 0 -246 -109 -346 -167 -244
-139 -498 -355 -696 -593 -252 -302 -450 -718 -529 -1110 -38 -190 -46 -275
-45 -520 0 -183 3 -241 19 -345 3 -16 7 -43 9 -60 3 -24 22 -117 41 -205 2 -8
15 -53 29 -100 87 -296 232 -582 425 -835 115 -152 272 -311 446 -454 311
-253 771 -457 1170 -516 22 -4 51 -8 65 -11 104 -19 471 -26 600 -12 407 46
747 160 1085 365 83 51 271 187 339 248 295 259 527 578 682 935 67 157 148
428 169 570 24 158 29 242 30 425 0 218 -10 338 -44 500 -6 28 -13 61 -15 75
-11 55 -50 190 -78 270 -237 674 -745 1220 -1403 1510 -27 12 -59 26 -70 30
-85 37 -376 122 -465 136 -14 2 -38 6 -55 9 -16 3 -50 8 -75 11 -25 3 -56 8
-70 10 -30 6 -455 15 -461 10z m356 -181 c55 -3 111 -8 125 -10 70 -9 119 -17
155 -25 22 -5 55 -11 72 -15 61 -10 268 -77 368 -117 671 -275 1177 -832 1388
-1529 20 -63 38 -135 42 -159 4 -25 8 -47 10 -50 2 -3 6 -23 9 -45 4 -22 11
-65 16 -95 21 -120 29 -404 16 -530 -11 -100 -18 -147 -27 -195 -5 -27 -11
-61 -14 -75 -66 -352 -239 -722 -474 -1016 -123 -153 -289 -314 -426 -414 -38
-28 -77 -56 -85 -63 -8 -7 -49 -33 -90 -58 -249 -153 -515 -259 -782 -313
-118 -23 -154 -29 -278 -42 -73 -7 -331 -7 -400 0 -30 4 -77 9 -105 12 -88 10
-317 61 -420 94 -514 165 -963 507 -1267 966 -155 232 -277 520 -333 784 -23
110 -35 174 -40 220 -3 30 -8 80 -12 110 -11 104 -4 396 12 481 3 12 7 45 10
73 3 28 15 92 26 141 167 757 689 1386 1403 1689 168 72 371 131 531 156 39 6
81 13 95 15 14 3 70 8 125 11 55 4 101 7 102 8 3 3 155 -3 248 -9z"/>
<path d="M3597 4203 c-1 0 -45 -4 -97 -7 -144 -10 -182 -14 -355 -32 -27 -3
-66 -7 -85 -9 -19 -3 -55 -7 -80 -10 -25 -3 -56 -7 -70 -10 -14 -3 -53 -10
-87 -15 -107 -18 -264 -50 -383 -80 -228 -57 -561 -168 -577 -193 -5 -7 -8
-459 -9 -1004 0 -546 -2 -995 -5 -997 -3 -3 -27 2 -54 10 -28 8 -91 17 -141
18 -286 10 -539 -172 -585 -419 -27 -146 23 -287 131 -366 116 -85 315 -125
467 -93 155 31 332 153 395 270 55 102 55 106 57 944 2 835 2 825 16 839 27
26 626 172 800 195 17 3 75 11 130 20 170 25 301 39 400 40 l60 1 3 -544 c1
-300 -2 -549 -6 -553 -5 -5 -35 -2 -68 7 -153 39 -329 12 -470 -70 -74 -43
-165 -141 -204 -220 -33 -67 -35 -75 -35 -175 1 -94 3 -111 28 -162 78 -159
285 -261 494 -244 197 15 405 146 478 300 52 110 51 93 50 1361 0 649 -5 1186
-9 1193 -6 10 -32 13 -98 10 -49 -2 -90 -4 -91 -5z"/>
</g>
</svg>
